<svg width="17" height="14" viewBox="0 0 17 14" fill="none" xmlns="http://www.w3.org/2000/svg">
<g id="refresh">
<path id="Vector" d="M1 1.66492V5.66439H5.09091" stroke="white" stroke-width="1.5" stroke-linecap="round" stroke-linejoin="round"/>
<path id="Vector_2" d="M16 12.3302V8.33069H11.9091" stroke="white" stroke-width="1.5" stroke-linecap="round" stroke-linejoin="round"/>
<path id="Vector_3" d="M14.2886 4.9979C13.9428 4.04255 13.3551 3.1884 12.5804 2.51517C11.8056 1.84193 10.869 1.37155 9.85799 1.14791C8.84697 0.924267 7.79449 0.954656 6.79873 1.23624C5.80298 1.51783 4.89642 2.04143 4.16364 2.75819L1 5.66448M16 8.33079L12.8364 11.2371C12.1036 11.9538 11.197 12.4774 10.2013 12.759C9.20551 13.0406 8.15303 13.071 7.14201 12.8474C6.131 12.6237 5.19441 12.1533 4.41964 11.4801C3.64486 10.8069 3.05716 9.95272 2.71136 8.99737" stroke="white" stroke-width="1.5" stroke-linecap="round" stroke-linejoin="round"/>
</g>
</svg>
